<?xml version="1.0" encoding="UTF-8"?>
<svg width="1200pt" height="1200pt" version="1.1" viewBox="0 0 1200 1200" xmlns="http://www.w3.org/2000/svg">
 <path fill="white" d="m1056.2 276.96-395.4-226.8c-15.719-9-33.359-13.559-50.879-13.559-16.922 0-33.961 4.1992-49.32 12.602l-415.2 228c-17.641 9.7188-31.441 24.121-40.68 41.16h-0.48047l0.12109 0.60156c-7.8008 14.52-12.121 30.961-12.121 48v485.16c0 37.32 20.398 71.762 53.039 89.762l415.2 228c15.359 8.3984 32.281 12.602 49.32 12.602 17.641 0 35.16-4.5586 50.879-13.559l395.4-226.8c31.801-18.238 51.48-52.078 51.48-88.801l0.003906-487.57c0-36.723-19.562-70.562-51.363-88.801zm-430.68-208.44c7.0781 1.5586 13.922 4.0781 20.281 7.6797l395.4 226.8c12 6.8398 21.48 17.039 27.84 28.922l-451.8 24.719-2.1602-3.2383zm427.2 294.36-149.52 434.16-267.12-411.36zm-455.16 24.602c0.83984 0.12109 1.5586 0.12109 2.3984 0.12109h1.5586l288.36 444.12-593.88-6.7188zm-314.04 402.72-137.28-438.36 416.76 32.879zm-123.72-486.6 415.2-228c6.4805-3.6016 13.32-6 20.52-7.4414l-10.441 284.52-2.3984 3.6016-443.88-35.039c5.7617-7.082 12.84-13.082 21-17.641zm-37.441 548.64v-476.28l139.56 445.56-3.8398 5.6406-132.36 46.559c-2.1562-6.8398-3.3594-14.039-3.3594-21.48zm37.441 63.363c-7.3203-4.0781-13.68-9.3594-19.078-15.359l129.24-45.48 12.602 0.12109 279.72 281.88zm165.6-60.242 538.8 6.1211-254.28 280.56zm715.8 60.84-387.72 222.36 250.68-276.72 10.801 0.12109 135.84 47.398c-2.8789 2.5195-6.1211 4.9219-9.6016 6.8398zm36.363-62.758c0 10.922-2.6406 21.48-7.1992 30.961l-142.8-49.922-3.6016-5.5195 153.6-446.28z"/>
</svg>
