<svg id="Слой_1" data-name="Слой 1" xmlns="http://www.w3.org/2000/svg" viewBox="0 0 159.52 159.5"><defs><style>.cls-1{fill:#fff;}.cls-2{fill:#202b45;}.cls-2,.cls-4{fill-rule:evenodd;}.cls-3{fill:#f6b938;}.cls-4{fill:#9558fc;}</style></defs><rect class="cls-1" width="159.52" height="159.5" rx="36.63"/><path class="cls-2" d="M79.81,8.9A70.87,70.87,0,0,0,20,41.72a71,71,0,0,0-4.4,68.12c51.11-27.5,104-45.22,120.16-50.47a2.89,2.89,0,0,1,1.35-.07,1.81,1.81,0,0,1,1.13.64,2.33,2.33,0,0,1,.71,1.13,2.22,2.22,0,0,1,0,1.35c-1.13,4.32-3.61,11.27-6,17.65-.78,2-1.49,4-2.2,5.81l-.5,1.28-.07.07a2.55,2.55,0,0,1-.28.64c-.07.21-.14.35-.22.57l-.42,1.06c0,.07,0,.07-.07.14v.14l-.43,1A8,8,0,0,1,126,94.39a7.54,7.54,0,0,1-4.25,1.49c-1.35.07-2.7.21-4,.28l-1.34.14-2.7.22-1.56.14-2.41.21-3.89.43-1.71.21c-.28.07-.63.07-.92.14a7.83,7.83,0,0,1-1.27.14l-1.71.22L98,98.36l-1.7.28L94.2,99l-1.63.28-2.2.43-1.56.28-2.27.43-1.41.28-3.62.78-3.55.78-1,.21a2.49,2.49,0,0,1-.71.14l-1.84.43-1.35.35L71,104l-3.4.92-3.34,1-1.48.43-1.78.57-1.42.42-1.77.57-1.42.5-1.77.56-1.34.43-1.78.64-1.27.42-1.85.71-1.06.43a15.34,15.34,0,0,0-1.7.71c-.28.07-.5.21-.78.28l-.35.14-.29.14c-.85.36-1.7.71-2.48,1l-.85.36-2,.85-1,.43-1.63.7-1,.43-1.56.71-1,.49-1.49.71-.92.5c-.14.07-.22.14-.36.21a7.24,7.24,0,0,1-1.06.5l-.85.42c-.5.29-1,.5-1.42.78l-.78.43-1.49.85-.64.35-.35.22q-3,1.69-5.53,3.4a22.94,22.94,0,0,0-4.25,3.69c-2,2.34-2.84,4.32-2.27,5.95,1.49,4.18,12.12,4.68,27.93,2.13A69.9,69.9,0,0,0,70,149.9a71.42,71.42,0,0,0,32.76-3.12,70.64,70.64,0,0,0,27.79-17.65,71.63,71.63,0,0,0,16.87-28.29A70.78,70.78,0,0,0,136.8,37.68a71.52,71.52,0,0,0-25.16-21.27A70.14,70.14,0,0,0,79.81,8.9Zm22.26,47.85a2.47,2.47,0,0,0-.71-1.42,2.86,2.86,0,0,0-1.49-.64l-17.79-1.2L79.81,36.05a.29.29,0,0,0-.07-.22l-.14-.14a10.85,10.85,0,0,0-3.69-.14,17.58,17.58,0,0,0-5.74,1.21.15.15,0,0,0-.14.14.24.24,0,0,0-.08.21L72.22,55.4l-14.1,9.93a3.64,3.64,0,0,0-1.28,1.48,3.53,3.53,0,0,0-.35,1.92L57.76,83a2,2,0,0,0,.28.92,1.69,1.69,0,0,0,.71.64,2.07,2.07,0,0,0,.93.28,3.7,3.7,0,0,0,.92-.14C66,82.34,71.23,80.14,76.33,78A3.36,3.36,0,0,0,78,76.67a3.53,3.53,0,0,0,.5-2.06L77,58.24v-.15A2.72,2.72,0,0,1,77.26,57a2.57,2.57,0,0,1,.56-.85l.07-.07a1.61,1.61,0,0,1,.36-.28c.07,0,.07-.07.14-.07a.49.49,0,0,1,.28-.15.28.28,0,0,0,.22-.07H79c.07,0,.07,0,.14-.07h.57l18.92.92a2.12,2.12,0,0,1,1.28.57,2.15,2.15,0,0,1,.64,1.28l.71,9.5c.07.35.28.49.71.42h.42c.29,0,.36-.35.36-.57Zm-21.55,5.6h7.72c.08,0,.22-.07.29-.07s.14-.14.21-.22.07-.14.14-.28V61.5a.8.8,0,0,0-.21-.57.87.87,0,0,0-.57-.28l-7.65-.07a.45.45,0,0,0-.29.07l-.21.21a.36.36,0,0,0-.14.28v.29a.64.64,0,0,0,.28.56C80,62.21,80.23,62.35,80.52,62.35Zm.42,5.88,7.8-.21C88.81,68,89,68,89,68l.22-.21c.07-.08.07-.22.14-.29v-.28a.82.82,0,0,0-.21-.57,1.52,1.52,0,0,0-.57-.28l-7.8.14c-.14,0-.21.07-.28.07s-.22.14-.22.21a.56.56,0,0,0-.14.29v.35a.86.86,0,0,0,.29.57A.47.47,0,0,0,80.94,68.23Zm3.76-3L92.21,65c.08,0,.22-.07.29-.07l.21-.21c.07-.07.07-.14.14-.29v-.28a1,1,0,0,0-.21-.57,1.67,1.67,0,0,0-.5-.28l-7.44.07c-.14,0-.21,0-.28.07s-.22.14-.22.21a.6.6,0,0,0-.14.29v.28a.64.64,0,0,0,.29.57C84.28,65,84.49,65.18,84.7,65.18ZM92,62.35H90.65a.83.83,0,0,1-.56-.29.79.79,0,0,1-.21-.56v-.29a.53.53,0,0,1,.14-.28l.21-.21a.42.42,0,0,1,.28-.07h1.35a.89.89,0,0,1,.57.28.8.8,0,0,1,.21.57v.28a.53.53,0,0,1-.14.28l-.21.22C92.21,62.28,92.14,62.35,92,62.35ZM80.66,65.18h1.49c.07,0,.21-.07.28-.07l.21-.21a.49.49,0,0,0,.15-.28v-.29a.62.62,0,0,0-.29-.56.83.83,0,0,0-.56-.29H80.45c-.07,0-.22.07-.29.07s-.21.14-.21.22a.53.53,0,0,0-.14.28v.28a.86.86,0,0,0,.28.64A.82.82,0,0,0,80.66,65.18Zm16-.21h-2.2a.86.86,0,0,1-.56-.28.78.78,0,0,1-.22-.57v-.28a.56.56,0,0,1,.14-.29l.22-.21c.07-.07.14-.07.28-.07h2.2a.59.59,0,0,1,.49.28.78.78,0,0,1,.22.57v.28c0,.07-.07.15-.07.29L97,64.9C96.89,65,96.82,65,96.68,65ZM79.38,57.6v.21a.5.5,0,0,0,.22.43.61.61,0,0,0,.42.21.26.26,0,0,0,.21-.07c.07,0,.15-.07.22-.14s.07-.15.14-.22v-.21a.5.5,0,0,0-.21-.42.62.62,0,0,0-.43-.22.26.26,0,0,0-.21.07c-.07,0-.14.07-.22.15S79.38,57.53,79.38,57.6Zm1.85.28v-.21c0-.07.07-.14.14-.21s.14-.15.21-.15.14-.07.21-.07a.58.58,0,0,1,.43.22.61.61,0,0,1,.21.42v.21c0,.08-.07.15-.14.22s-.14.14-.21.14-.14.07-.22.07a.5.5,0,0,1-.42-.21C81.3,58.24,81.3,58,81.23,57.88Zm1.84-.14V58a.52.52,0,0,0,.21.43.63.63,0,0,0,.43.21.26.26,0,0,0,.21-.07c.07,0,.14-.07.21-.14a.26.26,0,0,0,.07-.21V58a.5.5,0,0,0-.21-.42.62.62,0,0,0-.42-.22.26.26,0,0,0-.22.08c-.07,0-.14.07-.21.14A.54.54,0,0,1,83.07,57.74Z"/><path class="cls-3" d="M100.93,25.84l1.35,2.48c.07.14.21.28.28.28L105.05,30a.53.53,0,0,1,.28.29,1,1,0,0,1,.14.42,1.08,1.08,0,0,1-.14.43c-.07.14-.21.21-.28.28l-2.49,1.35c-.14.07-.28.21-.28.28l-1.35,2.48a.55.55,0,0,1-.28.28.68.68,0,0,1-.85,0c-.14-.07-.21-.21-.28-.28L98.17,33a.68.68,0,0,0-.36-.28l-2.48-1.35a.55.55,0,0,1-.28-.28,1.08,1.08,0,0,1-.14-.43,1,1,0,0,1,.14-.42.53.53,0,0,1,.28-.29l2.48-1.35c.15-.07.22-.21.36-.28l1.35-2.48a.55.55,0,0,1,.28-.28.68.68,0,0,1,.85,0Z"/><path class="cls-3" d="M27,74,28.56,77a.93.93,0,0,0,.35.36l2.91,1.56a.84.84,0,0,1,.35.35.95.95,0,0,1,0,1,.87.87,0,0,1-.35.36L28.91,82.2a.84.84,0,0,0-.35.35L27,85.46a.93.93,0,0,1-.36.35,1,1,0,0,1-.49.14,1.29,1.29,0,0,1-.5-.14.93.93,0,0,1-.36-.35l-1.56-2.91a.84.84,0,0,0-.35-.35l-2.91-1.63a.87.87,0,0,1-.35-.36,1,1,0,0,1-.14-.49,1.29,1.29,0,0,1,.14-.5.84.84,0,0,1,.35-.35l2.91-1.56a.93.93,0,0,0,.35-.36L25.37,74a.84.84,0,0,1,.35-.35,1,1,0,0,1,.5-.14,1.3,1.3,0,0,1,.49.14C26.78,73.83,26.92,73.9,27,74Z"/><path class="cls-3" d="M110.43,115.66l2.27,4.18a1.82,1.82,0,0,0,.5.57l4.18,2.27a1.67,1.67,0,0,1,.5.49,1.31,1.31,0,0,1,0,1.42,1.83,1.83,0,0,1-.5.5l-4.18,2.27a1.08,1.08,0,0,0-.5.49L110.43,132a1.56,1.56,0,0,1-.49.5,1.24,1.24,0,0,1-.71.21,1.19,1.19,0,0,1-.71-.21,1.59,1.59,0,0,1-.5-.5l-2.27-4.18a1.1,1.1,0,0,0-.49-.49l-4.18-2.27a1.7,1.7,0,0,1-.5-.5,1.31,1.31,0,0,1,0-1.42,1.56,1.56,0,0,1,.5-.49l4.18-2.27a1,1,0,0,0,.49-.57l2.27-4.18a1.7,1.7,0,0,1,.5-.5,1.19,1.19,0,0,1,.71-.21,1.24,1.24,0,0,1,.71.21A.86.86,0,0,1,110.43,115.66Z"/><path class="cls-4" d="M58.4,29.67a.78.78,0,0,0-.14-.57.63.63,0,0,0-.43-.42,1,1,0,0,0-1.13-.08l-5.25,2.2a1.65,1.65,0,0,1-.56.14.8.8,0,0,1-.57-.21l-.43-.42a1.76,1.76,0,0,1-.14-.57l-.21-2.41a2.48,2.48,0,0,1,.28-1.42,2.39,2.39,0,0,1,1.07-1l5.81-2.34a.85.85,0,0,1,.57-.07.79.79,0,0,1,.56.21l.43.43a.75.75,0,0,1,.14.56v.07a1.33,1.33,0,0,0,.14.57.82.82,0,0,0,.43.43c.14.14.35.14.56.21a.77.77,0,0,0,.57-.14l11-4.47a.81.81,0,0,1,.57-.07.93.93,0,0,1,.56.21,1.91,1.91,0,0,1,.36.43.81.81,0,0,1,.07.57L73,27.68A2.15,2.15,0,0,1,72.65,29a2.36,2.36,0,0,1-1.06,1L60.31,34.7a1.65,1.65,0,0,1-.56.14.8.8,0,0,1-.57-.21l-.43-.42a1.76,1.76,0,0,1-.14-.57Z"/></svg>